<svg width="1058" height="258" viewBox="0 0 1058 258" fill="none" xmlns="http://www.w3.org/2000/svg">
<g filter="url(#filter0_d_34_146)">
<path d="M1056.77 63.1067C1052.92 56.44 1043.3 56.44 1039.45 63.1067L965.933 190.442C962.084 197.108 966.895 205.441 974.593 205.441H1121.63C1129.32 205.441 1134.14 197.108 1130.29 190.441L1056.77 63.1067Z" fill="#1E1E1E"/>
</g>
<path d="M934.56 194.779C938.409 201.446 948.031 201.446 951.88 194.779L1025.4 67.4442C1029.25 60.7775 1024.43 52.4442 1016.74 52.4442L869.703 52.4442C862.005 52.4442 857.194 60.7775 861.043 67.4442L934.56 194.779Z" fill="#1E1E1E"/>
<path d="M846.991 63.1067C843.142 56.44 833.519 56.44 829.67 63.1067L756.153 190.442C752.304 197.108 757.116 205.441 764.814 205.441H911.847C919.545 205.441 924.356 197.108 920.507 190.441L846.991 63.1067Z" fill="#1E1E1E"/>
<g filter="url(#filter1_d_34_146)">
<path d="M724.78 194.779C728.629 201.446 738.252 201.446 742.101 194.779L815.618 67.4442C819.467 60.7775 814.655 52.4442 806.957 52.4442L659.924 52.4442C652.226 52.4442 647.414 60.7775 651.263 67.4442L724.78 194.779Z" fill="#1E1E1E"/>
</g>
<path d="M637.999 63.1067C634.15 56.44 624.528 56.44 620.679 63.1067L547.162 190.442C543.313 197.108 548.124 205.441 555.822 205.441H702.856C710.554 205.441 715.365 197.108 711.516 190.441L637.999 63.1067Z" fill="#1E1E1E"/>
<path d="M515.789 194.779C519.638 201.446 529.261 201.446 533.11 194.779L606.626 67.4442C610.475 60.7775 605.664 52.4442 597.966 52.4442L450.933 52.4442C443.235 52.4442 438.423 60.7775 442.272 67.4442L515.789 194.779Z" fill="#1E1E1E"/>
<g filter="url(#filter2_d_34_146)">
<path d="M428.22 63.1067C424.371 56.44 414.748 56.44 410.899 63.1067L337.382 190.442C333.533 197.108 338.345 205.441 346.043 205.441H493.076C500.774 205.441 505.586 197.108 501.737 190.441L428.22 63.1067Z" fill="#1E1E1E"/>
</g>
<path d="M218.44 63.1067C214.591 56.44 204.968 56.44 201.119 63.1067L127.603 190.442C123.754 197.108 128.565 205.441 136.263 205.441H283.297C290.995 205.441 295.806 197.108 291.957 190.441L218.44 63.1067Z" fill="#1E1E1E"/>
<path d="M306.009 194.779C309.858 201.446 319.481 201.446 323.33 194.779L396.847 67.4442C400.696 60.7775 395.884 52.4442 388.186 52.4442L241.153 52.4442C233.455 52.4442 228.644 60.7775 232.493 67.4442L306.009 194.779Z" fill="#1E1E1E"/>
<g filter="url(#filter3_d_34_146)">
<path d="M96.2296 194.779C100.079 201.446 109.701 201.446 113.55 194.779L187.067 67.4442C190.916 60.7775 186.105 52.4442 178.407 52.4442L31.3731 52.4442C23.6751 52.4442 18.8638 60.7775 22.7128 67.4442L96.2296 194.779Z" fill="#1E1E1E"/>
</g>
<defs>
<filter id="filter0_d_34_146" x="954.578" y="48.1067" width="187.063" height="167.335" filterUnits="userSpaceOnUse" color-interpolation-filters="sRGB">
<feFlood flood-opacity="0" result="BackgroundImageFix"/>
<feColorMatrix in="SourceAlpha" type="matrix" values="0 0 0 0 0 0 0 0 0 0 0 0 0 0 0 0 0 0 127 0" result="hardAlpha"/>
<feOffset/>
<feGaussianBlur stdDeviation="5"/>
<feComposite in2="hardAlpha" operator="out"/>
<feColorMatrix type="matrix" values="0 0 0 0 0.168627 0 0 0 0 0.713726 0 0 0 0 0.45098 0 0 0 0.56 0"/>
<feBlend mode="normal" in2="BackgroundImageFix" result="effect1_dropShadow_34_146"/>
<feBlend mode="normal" in="SourceGraphic" in2="effect1_dropShadow_34_146" result="shape"/>
</filter>
<filter id="filter1_d_34_146" x="639.909" y="42.4443" width="187.063" height="167.335" filterUnits="userSpaceOnUse" color-interpolation-filters="sRGB">
<feFlood flood-opacity="0" result="BackgroundImageFix"/>
<feColorMatrix in="SourceAlpha" type="matrix" values="0 0 0 0 0 0 0 0 0 0 0 0 0 0 0 0 0 0 127 0" result="hardAlpha"/>
<feOffset/>
<feGaussianBlur stdDeviation="5"/>
<feComposite in2="hardAlpha" operator="out"/>
<feColorMatrix type="matrix" values="0 0 0 0 0.168627 0 0 0 0 0.713726 0 0 0 0 0.45098 0 0 0 0.56 0"/>
<feBlend mode="normal" in2="BackgroundImageFix" result="effect1_dropShadow_34_146"/>
<feBlend mode="normal" in="SourceGraphic" in2="effect1_dropShadow_34_146" result="shape"/>
</filter>
<filter id="filter2_d_34_146" x="326.028" y="48.1067" width="187.063" height="167.335" filterUnits="userSpaceOnUse" color-interpolation-filters="sRGB">
<feFlood flood-opacity="0" result="BackgroundImageFix"/>
<feColorMatrix in="SourceAlpha" type="matrix" values="0 0 0 0 0 0 0 0 0 0 0 0 0 0 0 0 0 0 127 0" result="hardAlpha"/>
<feOffset/>
<feGaussianBlur stdDeviation="5"/>
<feComposite in2="hardAlpha" operator="out"/>
<feColorMatrix type="matrix" values="0 0 0 0 0.168627 0 0 0 0 0.713726 0 0 0 0 0.45098 0 0 0 0.56 0"/>
<feBlend mode="normal" in2="BackgroundImageFix" result="effect1_dropShadow_34_146"/>
<feBlend mode="normal" in="SourceGraphic" in2="effect1_dropShadow_34_146" result="shape"/>
</filter>
<filter id="filter3_d_34_146" x="11.3582" y="42.4443" width="187.063" height="167.335" filterUnits="userSpaceOnUse" color-interpolation-filters="sRGB">
<feFlood flood-opacity="0" result="BackgroundImageFix"/>
<feColorMatrix in="SourceAlpha" type="matrix" values="0 0 0 0 0 0 0 0 0 0 0 0 0 0 0 0 0 0 127 0" result="hardAlpha"/>
<feOffset/>
<feGaussianBlur stdDeviation="5"/>
<feComposite in2="hardAlpha" operator="out"/>
<feColorMatrix type="matrix" values="0 0 0 0 0.168627 0 0 0 0 0.713726 0 0 0 0 0.45098 0 0 0 0.56 0"/>
<feBlend mode="normal" in2="BackgroundImageFix" result="effect1_dropShadow_34_146"/>
<feBlend mode="normal" in="SourceGraphic" in2="effect1_dropShadow_34_146" result="shape"/>
</filter>
</defs>
</svg>
